<svg version="1.1" id="Layer_1" xmlns="http://www.w3.org/2000/svg" xmlns:xlink="http://www.w3.org/1999/xlink" x="0px" y="0px" viewBox="0 0 52.4 65.4" style="enable-background:new 0 0 52.4 65.4;" xml:space="preserve">
 <style type="text/css">
  .st0{fill-rule:evenodd;clip-rule:evenodd;fill:#FCDF51;}
	.st1{fill:#003764;}
	.st2{fill-rule:evenodd;clip-rule:evenodd;fill:#FFFFFF;}
	.st3{fill-rule:evenodd;clip-rule:evenodd;fill:#003764;}
	.st4{fill:#FCDF51;}
	.st5{clip-path:url(#SVGID_2_);fill-rule:evenodd;clip-rule:evenodd;fill:#231F20;}
	.st6{clip-path:url(#SVGID_2_);}
	.st7{fill:#231F20;}
	.st8{clip-path:url(#SVGID_2_);fill-rule:evenodd;clip-rule:evenodd;fill:#FCDF51;}
	.st9{clip-path:url(#SVGID_4_);fill-rule:evenodd;clip-rule:evenodd;fill:#F5333F;}
	.st10{clip-path:url(#SVGID_4_);}
	.st11{fill:#F5333F;}
	.st12{fill-rule:evenodd;clip-rule:evenodd;fill:#F5333F;}
	.st13{fill-rule:evenodd;clip-rule:evenodd;fill:#231F20;}
	.st14{fill-rule:evenodd;clip-rule:evenodd;fill:#FFE575;}
 </style>
 <g>
  <path class="st0" d="M26.2,0.1c0.9,0,1.6,0.7,1.6,1.6c0,0.3-0.1,0.5-0.2,0.7l0.1,0c0.9,0,1.6,0.7,1.6,1.6c0,0.9-0.7,1.6-1.6,1.6
		c-0.3,0-0.6-0.1-0.9-0.3c0,1.9,1.5,3.4,3.3,3.4c1.6,0,2.9-1.1,3.3-2.6c-0.2,0.1-0.6,0.1-0.9,0c-0.9-0.2-1.4-1.1-1.2-2
		c0.2-0.9,1.1-1.4,2-1.2l0.1,0c-0.1-0.2-0.1-0.5,0-0.8c0.2-0.9,1.1-1.4,2-1.2c0.9,0.2,1.4,1.1,1.2,2c-0.1,0.3-0.2,0.5-0.3,0.7l0.1,0
		c0.9,0.2,1.4,1.1,1.2,2c-0.2,0.9-1.1,1.4-2,1.2c-0.3-0.1-0.5-0.2-0.7-0.4l0,0.1c-0.4,1.8,0.7,3.6,2.5,4c1.6,0.3,2.6-0.1,3.1-0.6
		c-0.3,0-0.5-0.2-0.8-0.4c-0.7-0.6-0.8-1.6-0.2-2.3C40,6.7,41,6.6,41.7,7.2l0.4,0.4c0.6-1,0.7-1.2,0.9-1.6c0.5-0.8,1.3-0.5,2.1,0
		l1.2,0.9L44,9.2c0.1,0.2,0.1,0.3,0.1,0.5c0,0.8-0.6,1.4-1.4,1.4c-0.2,0-0.4,0-0.6-0.1c-1.4,1.1-3.2,1.6-5.1,1.2
		c-1.6-0.4-2.8-1.3-3.6-2.5l0.1-0.1c-1.2,0.7-2.8,1-4.3,0.6c-1.2-0.3-2.1-0.9-2.9-1.6c-0.7,0.8-1.7,1.4-2.9,1.6
		c-1.5,0.3-3,0.2-4.3-0.6l0,0c-0.8,1.2-2,2.1-3.6,2.5c-1.9,0.4-3.8-0.1-5.1-1.2c-0.2,0.1-0.4,0.1-0.6,0.1c-0.8,0-1.4-0.6-1.4-1.4
		c0-0.2,0-0.3,0.1-0.5L6,6.8l1.3-0.9c0.8-0.5,1.6-0.7,2.1,0c0.3,0.4,0.4,0.6,0.9,1.6l0.4-0.4c0.7-0.6,1.7-0.5,2.3,0.2
		c0.6,0.7,0.5,1.7-0.2,2.3C12.5,9.9,12.2,10,12,10c0.5,0.5,1.5,1,3.1,0.6c1.8-0.4,2.9-2.2,2.5-4l0-0.1c-0.2,0.2-0.4,0.3-0.7,0.4
		c-0.9,0.2-1.8-0.3-2-1.2c-0.2-0.9,0.3-1.8,1.2-2l0.1,0c-0.2-0.2-0.3-0.4-0.3-0.7c-0.2-0.9,0.3-1.8,1.2-2c0.9-0.2,1.8,0.3,2,1.2
		c0.1,0.3,0.1,0.5,0,0.8l0.1,0c0.9-0.2,1.8,0.3,2,1.2c0.2,0.9-0.3,1.8-1.2,2c-0.3,0.1-0.6,0-0.9,0c0.4,1.5,1.7,2.6,3.3,2.6
		c1.8,0,3.3-1.5,3.3-3.4c-0.3,0.2-0.6,0.3-0.9,0.3C23.7,5.7,23,5,23,4.1c0-0.9,0.7-1.6,1.6-1.6l0.1,0c-0.1-0.2-0.2-0.5-0.2-0.7
		C24.6,0.8,25.3,0.1,26.2,0.1">
  </path>
  <g>
   <path class="st1" d="M14.1,12.5c-1.4,0-2.7-0.5-3.8-1.4c-0.2,0.1-0.4,0.1-0.6,0.1c-0.8,0-1.5-0.7-1.5-1.5c0-0.1,0-0.3,0.1-0.5
			L5.8,6.8l1.3-0.9c0.6-0.4,1.6-0.9,2.2,0C9.6,6.2,9.7,6.4,10,7l0.3,0.5l0.3-0.3c0.7-0.6,1.8-0.5,2.4,0.2c0.3,0.3,0.4,0.8,0.4,1.2
			c0,0.5-0.3,0.9-0.6,1.2c-0.2,0.2-0.4,0.3-0.7,0.3c0.4,0.4,1.3,0.9,2.9,0.5c0.8-0.2,1.6-0.7,2-1.4c0.5-0.7,0.6-1.6,0.4-2.4
			C17.3,6.9,17.1,7,16.8,7c-0.4,0.1-0.9,0-1.3-0.2c-0.4-0.2-0.7-0.6-0.8-1.1c-0.2-0.9,0.4-1.8,1.3-2c-0.1-0.2-0.2-0.4-0.3-0.6
			c-0.1-0.4,0-0.9,0.2-1.3C16.2,1.4,16.6,1.2,17,1c0.4-0.1,0.9,0,1.3,0.2c0.4,0.2,0.7,0.6,0.8,1.1c0.1,0.2,0.1,0.4,0,0.7
			c0.4-0.1,0.9,0,1.2,0.2c0.4,0.2,0.7,0.6,0.8,1.1c0.2,0.9-0.4,1.8-1.3,2.1c-0.3,0.1-0.6,0-0.8,0c0.4,1.4,1.7,2.4,3.1,2.4
			c1.7,0,3.2-1.4,3.3-3.1c-0.3,0.1-0.5,0.2-0.8,0.2c-0.9,0-1.7-0.8-1.7-1.7c0-0.9,0.8-1.7,1.7-1.7c-0.1-0.2-0.1-0.4-0.1-0.7
			c0-0.9,0.8-1.7,1.7-1.7c0.9,0,1.7,0.8,1.7,1.7c0,0.2,0,0.5-0.1,0.7c0.9,0,1.7,0.8,1.7,1.7c0,0.9-0.8,1.7-1.7,1.7
			c-0.3,0-0.6-0.1-0.8-0.2c0.1,1.7,1.5,3.1,3.3,3.1c1.5,0,2.7-1,3.1-2.4c-0.2,0-0.5,0.1-0.8,0c-0.9-0.2-1.5-1.1-1.3-2.1
			c0.1-0.4,0.4-0.8,0.8-1.1C32.4,3,32.8,2.9,33.2,3c0-0.2,0-0.5,0-0.7c0.1-0.4,0.4-0.8,0.8-1.1C34.4,1,34.8,0.9,35.3,1
			c0.4,0.1,0.8,0.4,1.1,0.8c0.2,0.4,0.3,0.8,0.2,1.3c-0.1,0.2-0.1,0.4-0.3,0.6c0.4,0.1,0.8,0.4,1,0.8c0.2,0.4,0.3,0.8,0.2,1.3
			s-0.4,0.8-0.8,1.1C36.4,7.1,36,7.1,35.5,7C35.3,7,35,6.9,34.8,6.7c-0.2,0.8,0,1.7,0.4,2.4c0.5,0.7,1.2,1.2,2,1.4
			c1.6,0.3,2.5-0.1,2.9-0.5C40,10,39.7,9.9,39.6,9.7C39.2,9.4,39,9,39,8.6c0-0.5,0.1-0.9,0.4-1.2c0.3-0.4,0.7-0.6,1.2-0.6
			c0.4,0,0.9,0.1,1.2,0.4l0.4,0.3l0.3-0.5c0.3-0.5,0.4-0.7,0.6-1c0.6-0.9,1.5-0.5,2.2,0l1.3,0.9l-2.4,2.5c0.1,0.2,0.1,0.3,0.1,0.5
			c0,0.8-0.7,1.5-1.5,1.5c-0.2,0-0.4,0-0.6-0.1c-1.4,1.2-3.3,1.6-5.1,1.2c-1.5-0.3-2.8-1.2-3.6-2.5c-1.3,0.7-2.8,0.9-4.2,0.6
			c-1.1-0.3-2.1-0.8-2.9-1.6c-0.8,0.8-1.8,1.3-2.9,1.6c-1.5,0.3-3,0.2-4.3-0.5c-0.8,1.3-2.1,2.1-3.6,2.5
			C15,12.4,14.5,12.5,14.1,12.5z M10.3,10.9L10.3,10.9c1.4,1.2,3.3,1.6,5.1,1.2c1.5-0.3,2.7-1.2,3.5-2.5l0-0.1l0.1,0
			c1.2,0.7,2.7,0.9,4.2,0.6c1.1-0.3,2.1-0.8,2.9-1.6l0.1-0.1l0.1,0.1C27,9.4,28,10,29.1,10.2c1.5,0.3,3,0.1,4.2-0.6l0.1,0.1l0,0
			c0.8,1.2,2.1,2.1,3.5,2.5c1.8,0.4,3.7,0,5-1.2l0,0l0,0c0.2,0.1,0.4,0.1,0.6,0.1c0.8,0,1.4-0.6,1.4-1.4c0-0.2,0-0.3-0.1-0.5l0,0
			l2.3-2.4L45.1,6c-0.9-0.6-1.5-0.6-1.9,0c-0.2,0.3-0.3,0.5-0.6,1l-0.4,0.7l-0.5-0.5c-0.3-0.3-0.7-0.4-1.1-0.4
			c-0.4,0-0.8,0.2-1.1,0.5c-0.3,0.3-0.4,0.7-0.4,1.1c0,0.4,0.2,0.8,0.5,1.1c0.2,0.2,0.5,0.3,0.7,0.3l0.1,0l-0.1,0.1
			c-0.4,0.4-1.4,1-3.2,0.7c-0.9-0.2-1.6-0.7-2.1-1.5c-0.5-0.8-0.7-1.7-0.4-2.6l0.1-0.2l0.1,0.1c0.2,0.2,0.4,0.3,0.7,0.4
			c0.4,0.1,0.8,0,1.2-0.2c0.4-0.2,0.6-0.6,0.7-1c0.1-0.4,0-0.8-0.2-1.2s-0.6-0.6-1-0.7l-0.2,0l0.1-0.1c0.2-0.2,0.3-0.4,0.3-0.6
			c0.1-0.4,0-0.8-0.2-1.2c-0.2-0.4-0.6-0.6-1-0.7c-0.4-0.1-0.8,0-1.2,0.2c-0.4,0.2-0.6,0.6-0.7,1c-0.1,0.2-0.1,0.5,0,0.7l0,0.1
			l-0.2,0c-0.4-0.1-0.8,0-1.2,0.2c-0.4,0.2-0.6,0.6-0.7,1c-0.2,0.8,0.3,1.7,1.2,1.9c0.2,0.1,0.6,0,0.8,0l0.1,0l0,0.1
			c-0.4,1.5-1.7,2.6-3.3,2.6c-1.9,0-3.4-1.5-3.4-3.4l0-0.1l0.1,0.1c0.3,0.2,0.6,0.3,0.9,0.3c0.9,0,1.6-0.7,1.6-1.6s-0.7-1.6-1.6-1.6
			l-0.2,0l0.1-0.1c0.1-0.2,0.2-0.5,0.2-0.7c0-0.9-0.7-1.6-1.5-1.6c-0.8,0-1.5,0.7-1.5,1.6c0,0.2,0.1,0.5,0.2,0.7l0.1,0.1l-0.2,0
			c-0.9,0-1.6,0.7-1.6,1.6s0.7,1.6,1.6,1.6c0.3,0,0.6-0.1,0.9-0.3l0.1-0.1l0,0.1c0,1.9-1.5,3.4-3.4,3.4c-1.6,0-3-1.1-3.3-2.6l0-0.1
			l0.1,0c0.3,0.1,0.6,0.1,0.8,0c0.8-0.2,1.4-1,1.2-1.9c-0.2-0.8-1-1.4-1.9-1.2l-0.2,0l0-0.1c0.1-0.2,0.1-0.5,0-0.7
			c-0.1-0.4-0.3-0.7-0.7-1c-0.4-0.2-0.8-0.3-1.2-0.2c-0.4,0.1-0.7,0.3-1,0.7c-0.2,0.4-0.3,0.8-0.2,1.2c0.1,0.2,0.2,0.5,0.3,0.7
			l0.1,0.1l-0.2,0c-0.8,0.2-1.4,1-1.2,1.9c0.1,0.4,0.3,0.7,0.7,1C16,6.9,16.4,7,16.8,6.9c0.3-0.1,0.5-0.2,0.7-0.4l0.1-0.1l0.1,0.2
			c0.2,0.9,0.1,1.8-0.4,2.6c-0.5,0.8-1.2,1.3-2.1,1.5c-1.8,0.4-2.8-0.2-3.2-0.7L11.8,10l0.1,0c0.3,0,0.5-0.2,0.7-0.3
			C13,9.3,13.2,9,13.2,8.5c0-0.4-0.1-0.8-0.4-1.1c-0.6-0.7-1.5-0.7-2.2-0.2l-0.5,0.5L9.8,7C9.5,6.5,9.4,6.3,9.2,6
			c-0.4-0.6-1-0.6-1.9,0L6.1,6.8l2.3,2.4l0,0C8.3,9.4,8.3,9.6,8.3,9.7c0,0.8,0.6,1.4,1.4,1.4C9.9,11.1,10.1,11.1,10.3,10.9
			L10.3,10.9z">
   </path>
  </g>
  <path class="st2" d="M0.1,36.9c0-14.4,11.7-26.1,26.1-26.1c14.4,0,26.1,11.7,26.1,26.1c0,14.4-11.7,26.1-26.1,26.1
		C11.8,63.1,0.1,51.4,0.1,36.9">
  </path>
  <path class="st3" d="M1,37.1C1,23.2,12.3,12,26.1,12s25.1,11.2,25.1,25.1c0,13.9-11.2,25.1-25.1,25.1S1,50.9,1,37.1">
  </path>
  <path class="st2" d="M30.2,13.7l5.6,7.3l6,0v4.2h-2.7L47.8,37L29,62.5l-5.6,0L4.5,36.9l8.9-11.7h-3V21l6.2,0l5.5-7.3
		c0,0,2.2-0.3,4-0.3C27.6,13.4,30.2,13.7,30.2,13.7">
  </path>
  <path class="st4" d="M18.7,18.8c-2.5,0-4.8-1.4-5.9-3.5c-0.1-0.2-0.1-0.4-0.1-0.6c0-0.5,0.3-1,0.7-1.2c3.9-1.8,8.2-2.8,12.8-2.8
		c4.5,0,8.7,1,12.6,2.7l0,0c0.4,0.2,0.8,0.7,0.8,1.2c0,0.2-0.1,0.6-0.2,0.8c-1.2,2.1-3.5,3.5-6.1,3.5c-0.3,0-0.9,0-0.9,0L18.7,18.8z
		">
  </path>
  <g>
   <defs>
    <path id="SVGID_1_" d="M13.3,13.5c-0.4,0.2-0.7,0.7-0.7,1.2c0,0.2,0,0.5,0.1,0.6c1.2,2.1,3.4,3.5,5.9,3.5l13.6,0c0,0,0.5,0,0.9,0
				c2.6,0,4.8-1.4,6.1-3.5c0.1-0.2,0.2-0.5,0.2-0.8c0-0.5-0.3-1-0.8-1.2l0,0c-3.9-1.7-8.1-2.7-12.6-2.7
				C21.6,10.7,17.2,11.7,13.3,13.5">
    </path>
   </defs>
   <clipPath id="SVGID_2_">
    <use href="#SVGID_1_" style="overflow:visible;">
    </use>
   </clipPath>
   <path class="st8" d="M12.2,13.6c0.2,0.2-1.2,1.6,0.3,2.8c2.2,1.7,2.2-2.4,13.7-2.4c7.9,0,11,2.6,11,2.6L36,17L34.8,17l0.3-0.9
			l-0.4-0.5l-0.5,0.6l-0.3,0l-0.3-0.9l-0.4,0.8l-0.9,0.4l1.4,2c2.9-0.2,6.1-2.8,6.1-4.1c0-2.2-7.2-4.2-13.7-4.2
			C20,10.4,12,13.5,12.2,13.6">
   </path>
  </g>
  <g>
   <path class="st7" d="M32.3,18.9l-13.6,0c-2.5,0-4.8-1.4-6-3.5c-0.1-0.2-0.2-0.4-0.2-0.7c0-0.5,0.3-1,0.8-1.2
			c4-1.8,8.3-2.8,12.8-2.8c4.4,0,8.6,0.9,12.6,2.7l0,0c0.5,0.2,0.8,0.7,0.8,1.3c0,0.3-0.1,0.6-0.2,0.8c-1.3,2.2-3.6,3.5-6.1,3.5
			C32.8,18.9,32.3,18.9,32.3,18.9z M18.7,18.7l13.6,0c0,0,0.5,0,0.9,0c2.4,0,4.7-1.3,6-3.4c0.1-0.2,0.2-0.5,0.2-0.7
			c0-0.5-0.3-0.9-0.7-1.1l-0.3-0.1l0,0c-3.9-1.7-8-2.5-12.2-2.5c-4.4,0-8.7,0.9-12.8,2.8c-0.4,0.2-0.7,0.6-0.7,1.1
			c0,0.2,0,0.5,0.1,0.6C14,17.3,16.3,18.7,18.7,18.7z">
   </path>
  </g>
  <path class="st0" d="M30.1,14.4l17,22.5l-21,28.4l-21-28.4l17-22.5c0,0,2.1-0.3,3.9-0.3C27.6,14.1,30.1,14.4,30.1,14.4">
  </path>
  <g>
   <defs>
    <path id="SVGID_3_" d="M22.3,14.4l-17,22.5l21,28.4l21-28.4l-17-22.5c0,0-2.5-0.3-4-0.3C24.4,14.1,22.3,14.4,22.3,14.4">
    </path>
   </defs>
   <clipPath id="SVGID_4_">
    <use xlink:href="#SVGID_3_" style="overflow:visible;">
    </use>
   </clipPath>
   <polygon class="st9" points="9.6,32.8 14.4,26.8 14.4,47.2 9.6,41.3 		">
   </polygon>
   <g class="st10">
    <path class="st11" d="M14.5,47.6l-5-6.2v-8.6l0,0l5-6.3V47.6z M9.8,41.3l4.4,5.5V27.2l-4.4,5.6V41.3z">
    </path>
   </g>
   <polygon class="st9" points="23.6,14.6 18.9,20.9 18.9,54 23.6,60 		">
   </polygon>
   <g class="st10">
    <path class="st11" d="M23.7,60.5l-5-6.4V20.8l5-6.6L23.7,60.5z M19,54l4.4,5.6l0-44.6L19,20.9V54z">
    </path>
   </g>
   <polygon class="st9" points="42.7,32.8 38,26.8 38,47 42.7,41.2 		">
   </polygon>
   <g class="st10">
    <path class="st11" d="M37.9,47.4v-21l4.9,6.3v8.5l0,0L37.9,47.4z M38.2,27.3v19.3l4.3-5.4v-8.3L38.2,27.3z">
    </path>
   </g>
   <polygon class="st9" points="28.8,14.5 33.5,20.9 33.5,53.9 28.8,60.1 		">
   </polygon>
   <g class="st10">
    <path class="st11" d="M28.7,60.5L28.6,14l5.1,6.8V54L28.7,60.5z M28.9,14.9L29,59.6l4.4-5.8V20.9L28.9,14.9z">
    </path>
   </g>
  </g>
  <path class="st12" d="M25.2,3.8c0-0.6,0.5-1,1-1s1,0.5,1,1c0,0.6-0.5,1-1,1S25.2,4.4,25.2,3.8">
  </path>
  <path class="st12" d="M16.9,4.9c0-0.6,0.5-1,1-1s1,0.5,1,1c0,0.6-0.5,1-1,1S16.9,5.4,16.9,4.9">
  </path>
  <path class="st12" d="M33.5,4.9c0-0.6,0.5-1,1-1s1,0.5,1,1c0,0.6-0.5,1-1,1S33.5,5.4,33.5,4.9">
  </path>
  <path class="st12" d="M42,10.1c0-0.6,0.5-1,1-1s1,0.5,1,1c0,0.6-0.5,1-1,1S42,10.6,42,10.1">
  </path>
  <path class="st12" d="M8.3,10.1c0-0.6,0.5-1,1-1s1,0.5,1,1c0,0.6-0.5,1-1,1S8.3,10.6,8.3,10.1">
  </path>
  <polygon class="st12" points="26.1,11.3 23.7,12.2 26.1,13.3 28.5,12.3 	">
  </polygon>
  <polygon class="st3" points="15.5,13.4 13.6,15.1 16.2,15.2 18.1,13.4 	">
  </polygon>
  <polygon class="st3" points="36.7,13.4 38.6,15.1 36,15.2 34.1,13.4 	">
  </polygon>
  <path class="st13" d="M18.5,31.1c-0.8-0.5-1.5-0.7-2.3-0.7c-3.3,0-5.6,2.8-5.6,6.7c0,3.7,2.4,6.6,5.5,6.6c0.9,0,1.6-0.2,2.5-0.7
		v-3.8c-0.6,0.6-1.2,0.8-1.8,0.8c-1.5,0-2.5-1.2-2.5-3.1c0-1.7,1-3,2.4-3c0.6,0,1.2,0.2,1.8,0.8V31.1z">
  </path>
  <polygon class="st13" points="41.9,33.4 41.9,30.6 34.4,30.6 34.4,43.7 37.8,43.7 37.8,38.3 41.5,38.3 41.5,35.5 37.8,35.5 
		37.8,33.4 	">
  </polygon>
  <polygon class="st13" points="10.7,21.3 10.7,24.9 17.7,24.9 26.1,53.8 34.1,24.9 41.5,24.9 41.5,21.3 31.5,21.3 26.2,40.9 
		20.8,21.3 	">
  </polygon>
  <polygon class="st14" points="17.2,15.9 18,17 17.9,18 18.7,18 20.8,14.9 	">
  </polygon>
  <g>
   <path class="st7" d="M17.8,18.1l0.1-1l-0.8-1.2l3.8-1.1L18.7,18L17.8,18.1z M17.4,16L18,17l0,0l0,0.9l0.7,0l2-2.9L17.4,16z">
   </path>
  </g>
  <path class="st1" d="M26.2,63.1C11.8,63.1,0,51.4,0,36.9c0-14.5,11.8-26.2,26.2-26.2s26.2,11.8,26.2,26.2
		C52.4,51.4,40.7,63.1,26.2,63.1z M26.2,10.9c-14.4,0-26.1,11.7-26.1,26.1C0.2,51.3,11.8,63,26.2,63c14.4,0,26.1-11.7,26.1-26.1
		C52.3,22.6,40.6,10.9,26.2,10.9z">
  </path>
  <path class="st1" d="M26.2,65.4L26.2,65.4L5.2,36.9l0,0l17-22.5l0,0c0,0,2.1-0.3,3.9-0.3c1.5,0,4,0.3,4,0.3l0,0l0,0l17.1,22.5l0,0
		L26.2,65.4z M5.3,36.9l20.9,28.3l20.9-28.2l-17-22.4c-0.3,0-2.6-0.3-3.9-0.3c-1.6,0-3.6,0.2-3.8,0.3L5.3,36.9z">
  </path>
 </g>
</svg>