<svg width="26" height="19" viewBox="0 0 26 19" fill="none" xmlns="http://www.w3.org/2000/svg">
<path d="M0 18.6667V15.4C0 14.7389 0.170139 14.1313 0.510417 13.5771C0.850694 13.0229 1.30278 12.6 1.86667 12.3083C3.07222 11.7056 4.29722 11.2535 5.54167 10.9521C6.78611 10.6507 8.05 10.5 9.33333 10.5C10.6167 10.5 11.8806 10.6507 13.125 10.9521C14.3694 11.2535 15.5944 11.7056 16.8 12.3083C17.3639 12.6 17.816 13.0229 18.1562 13.5771C18.4965 14.1313 18.6667 14.7389 18.6667 15.4V18.6667H0ZM21 18.6667V15.1667C21 14.3111 20.7618 13.4896 20.2854 12.7021C19.809 11.9146 19.1333 11.2389 18.2583 10.675C19.25 10.7917 20.1833 10.991 21.0583 11.2729C21.9333 11.5549 22.75 11.9 23.5083 12.3083C24.2083 12.6972 24.7431 13.1299 25.1125 13.6062C25.4819 14.0826 25.6667 14.6028 25.6667 15.1667V18.6667H21ZM9.33333 9.33333C8.05 9.33333 6.95139 8.87639 6.0375 7.9625C5.12361 7.04861 4.66667 5.95 4.66667 4.66667C4.66667 3.38333 5.12361 2.28472 6.0375 1.37083C6.95139 0.456944 8.05 0 9.33333 0C10.6167 0 11.7153 0.456944 12.6292 1.37083C13.5431 2.28472 14 3.38333 14 4.66667C14 5.95 13.5431 7.04861 12.6292 7.9625C11.7153 8.87639 10.6167 9.33333 9.33333 9.33333ZM21 4.66667C21 5.95 20.5431 7.04861 19.6292 7.9625C18.7153 8.87639 17.6167 9.33333 16.3333 9.33333C16.1194 9.33333 15.8472 9.30903 15.5167 9.26042C15.1861 9.21181 14.9139 9.15833 14.7 9.1C15.225 8.47778 15.6285 7.7875 15.9104 7.02917C16.1924 6.27083 16.3333 5.48333 16.3333 4.66667C16.3333 3.85 16.1924 3.0625 15.9104 2.30417C15.6285 1.54583 15.225 0.855556 14.7 0.233333C14.9722 0.136111 15.2444 0.0729167 15.5167 0.04375C15.7889 0.0145833 16.0611 0 16.3333 0C17.6167 0 18.7153 0.456944 19.6292 1.37083C20.5431 2.28472 21 3.38333 21 4.66667Z" fill="white"/>
</svg>
