<svg width="51" height="51" viewBox="0 0 51 51" fill="none" xmlns="http://www.w3.org/2000/svg">
<path d="M25.3377 50.6665C21.8339 50.6665 18.5405 50.0016 15.4574 48.6718C12.3744 47.3421 9.69256 45.5374 7.41196 43.2578C5.13136 40.9782 3.32588 38.2976 1.99553 35.2159C0.665176 32.1343 0 28.8415 0 25.3377C0 21.8339 0.66488 18.5405 1.99464 15.4574C3.3244 12.3744 5.12908 9.69256 7.40867 7.41196C9.68826 5.13136 12.3689 3.32588 15.4506 1.99553C18.5322 0.665176 21.825 0 25.3288 0C28.8326 0 32.126 0.66488 35.2091 1.99464C38.2921 3.3244 40.9739 5.12908 43.2545 7.40867C45.5351 9.68826 47.3406 12.3689 48.6709 15.4506C50.0013 18.5322 50.6665 21.825 50.6665 25.3288C50.6665 28.8326 50.0016 32.126 48.6718 35.2091C47.3421 38.2921 45.5374 40.9739 43.2578 43.2545C40.9782 45.5351 38.2976 47.3406 35.2159 48.6709C32.1343 50.0013 28.8415 50.6665 25.3377 50.6665ZM25.3332 46.6666C31.2888 46.6666 36.3332 44.5999 40.4666 40.4666C44.5999 36.3332 46.6666 31.2888 46.6666 25.3332C46.6666 19.3777 44.5999 14.3332 40.4666 10.1999C36.3332 6.06657 31.2888 3.9999 25.3332 3.9999C19.3777 3.9999 14.3332 6.06657 10.1999 10.1999C6.06657 14.3332 3.9999 19.3777 3.9999 25.3332C3.9999 31.2888 6.06657 36.3332 10.1999 40.4666C14.3332 44.5999 19.3777 46.6666 25.3332 46.6666Z" fill="#006A63"/>
</svg>
