<svg width="16" height="19" viewBox="0 0 16 19" fill="none" xmlns="http://www.w3.org/2000/svg">
<path d="M7.51154 18.2308C6.96795 18.2308 6.45032 18.118 5.95866 17.8923C5.46699 17.6667 5.06026 17.3385 4.73847 16.9077L0 10.6366L0.263463 10.3481C0.430131 10.1648 0.628209 10.0526 0.857697 10.0115C1.08719 9.97052 1.30578 10.0109 1.51347 10.1327L4.53654 11.6231V4.00001C4.53654 3.85834 4.58452 3.73959 4.68049 3.64375C4.77645 3.54792 4.89536 3.5 5.03722 3.5C5.17908 3.5 5.29872 3.54792 5.39616 3.64375C5.4936 3.73959 5.54232 3.85834 5.54232 4.00001V13.3193L1.96348 11.55L5.60193 16.3558C5.83014 16.6519 6.11347 16.8718 6.45193 17.0154C6.79039 17.159 7.14359 17.2308 7.51154 17.2308H11.825C12.5289 17.2308 13.1247 16.9901 13.6125 16.5087C14.1003 16.0273 14.3442 15.4346 14.3442 14.7308V11.1923C14.3442 10.7891 14.2079 10.4511 13.9351 10.1784C13.6623 9.90562 13.3244 9.76924 12.9212 9.76924H8.31154V8.76924H12.9212C13.5942 8.76924 14.1664 9.00482 14.6375 9.47597C15.1087 9.94712 15.3442 10.5192 15.3442 11.1923V14.7294C15.3442 15.7021 14.9997 16.5289 14.3105 17.2096C13.6213 17.8904 12.7928 18.2308 11.825 18.2308H7.51154V18.2308M1.57692 6.00001C1.39872 5.69744 1.2641 5.37767 1.17308 5.04069C1.08205 4.70371 1.03654 4.35681 1.03654 4.00001C1.03654 2.8859 1.42468 1.94071 2.20096 1.16443C2.97725 0.388142 3.92244 0 5.03654 0C6.15065 0 7.09584 0.388142 7.87212 1.16443C8.64841 1.94071 9.03655 2.88509 9.03655 3.99756C9.03655 4.35945 8.99104 4.70802 8.90001 5.04328C8.80899 5.37853 8.67437 5.69744 8.49616 6.00001L7.63654 5.50001C7.76988 5.26667 7.86988 5.02917 7.93654 4.78751C8.00321 4.54584 8.03654 4.28334 8.03654 4.00001C8.03654 3.16667 7.74488 2.45834 7.16154 1.87501C6.57821 1.29167 5.86988 1.00001 5.03654 1.00001C4.20321 1.00001 3.49488 1.29167 2.91154 1.87501C2.32821 2.45834 2.03654 3.16667 2.03654 4.00001C2.03654 4.28334 2.06988 4.54584 2.13654 4.78751C2.20321 5.02917 2.30321 5.26667 2.43654 5.50001L1.57692 6.00001V6.00001M8.16347 13V13V13V13V13V13V13V13V13V13V13V13V13V13V13V13" fill="#006A63"/>
</svg>
