<svg width="511" height="985" viewBox="0 0 511 985" fill="none" xmlns="http://www.w3.org/2000/svg">
<path d="M395.679 283.669C386.549 281.729 378.333 278.172 371.032 272.998C363.731 267.825 357.739 261.636 353.056 254.432C348.373 247.228 345.151 239.243 343.39 230.476C341.628 221.708 341.718 212.76 343.658 203.63C345.599 194.499 349.156 186.284 354.33 178.983C359.503 171.682 365.692 165.69 372.896 161.007C380.099 156.324 388.085 153.102 396.852 151.34C405.619 149.579 414.568 149.668 423.698 151.609C432.828 153.55 441.044 157.107 448.345 162.28C455.646 167.454 461.638 173.642 466.321 180.846C471.004 188.05 474.226 196.035 475.988 204.803C477.749 213.57 477.659 222.519 475.719 231.649C473.778 240.779 470.221 248.994 465.048 256.295C459.874 263.596 453.685 269.588 446.482 274.271C439.278 278.954 431.292 282.177 422.525 283.938C413.758 285.7 404.809 285.61 395.679 283.669V283.669M397.214 276.328C413.598 279.81 428.684 277.075 442.472 268.121C456.26 259.167 464.895 246.498 468.377 230.114C471.86 213.73 469.124 198.644 460.17 184.856C451.216 171.068 438.547 162.433 422.163 158.95C405.779 155.468 390.693 158.203 376.906 167.157C363.118 176.111 354.482 188.78 351 205.164C347.517 221.548 350.253 236.634 359.207 250.422C368.161 264.21 380.83 272.845 397.214 276.328V276.328M409.689 217.639V217.639V217.639V217.639V217.639V217.639V217.639V217.639V217.639V217.639" fill="#006A63" fill-opacity="0.1"/>
<path d="M69.0073 129.635L61.6628 124.866L99.4043 66.7487L41.2875 29.0072L46.057 21.6627L104.174 59.4042L141.915 1.28736L149.26 6.05691L111.518 64.1738L169.635 101.915L164.866 109.26L106.749 71.5183L69.0073 129.635V129.635" fill="#FD7865" fill-opacity="0.1"/>
<path d="M355.285 730.317L351.582 722.381L414.38 693.083L385.082 630.285L393.018 626.582L422.316 689.38L485.114 660.082L488.817 668.018L426.019 697.316L455.317 760.114L447.381 763.817L418.083 701.019L355.285 730.317V730.317" fill="#FD7865" fill-opacity="0.1"/>
<path d="M66.0495 970.089C56.9194 968.149 48.7039 964.591 41.4028 959.418C34.1017 954.245 28.1097 948.056 23.4267 940.852C18.7437 933.648 15.5214 925.663 13.76 916.895C11.9986 908.128 12.0882 899.18 14.0289 890.049C15.9695 880.919 19.5266 872.704 24.7 865.403C29.8735 858.102 36.0622 852.11 43.266 847.427C50.4698 842.744 58.4553 839.521 67.2226 837.76C75.9898 835.999 84.9385 836.088 94.0686 838.029C103.199 839.97 111.414 843.527 118.715 848.7C126.016 853.874 132.008 860.062 136.691 867.266C141.374 874.47 144.597 882.455 146.358 891.223C148.119 899.99 148.03 908.938 146.089 918.069C144.149 927.199 140.591 935.414 135.418 942.715C130.245 950.016 124.056 956.008 116.852 960.691C109.648 965.374 101.663 968.597 92.8954 970.358C84.1282 972.119 75.1795 972.03 66.0495 970.089V970.089M67.5843 962.748C83.9683 966.23 99.0542 963.495 112.842 954.541C126.63 945.587 135.265 932.918 138.748 916.534C142.23 900.15 139.495 885.064 130.541 871.276C121.587 857.488 108.918 848.853 92.5337 845.37C76.1498 841.888 61.0638 844.623 47.2759 853.577C33.488 862.531 24.8527 875.2 21.3702 891.584C17.8877 907.968 20.6234 923.054 29.5774 936.842C38.5314 950.63 51.2003 959.265 67.5843 962.748V962.748M80.059 904.059V904.059V904.059V904.059V904.059V904.059V904.059V904.059V904.059V904.059" fill="#006A63" fill-opacity="0.1"/>
</svg>
